<svg width="12" height="12" viewBox="0 0 6 8" fill="none" xmlns="http://www.w3.org/2000/svg">
<path d="M0.428571 7.24984C0.428571 7.44875 0.496301 7.63951 0.61686 7.78017C0.737419 7.92082 0.900932 7.99984 1.07143 7.99984H4.92857C5.09907 7.99984 5.26258 7.92082 5.38314 7.78017C5.5037 7.63951 5.57143 7.44875 5.57143 7.24984V1.99983H0.428571V7.24984ZM4.07143 3.24983C4.07143 3.18353 4.09401 3.11994 4.13419 3.07306C4.17438 3.02617 4.22888 2.99983 4.28571 2.99983C4.34255 2.99983 4.39705 3.02617 4.43724 3.07306C4.47742 3.11994 4.5 3.18353 4.5 3.24983V6.74984C4.5 6.81614 4.47742 6.87973 4.43724 6.92661C4.39705 6.9735 4.34255 6.99984 4.28571 6.99984C4.22888 6.99984 4.17438 6.9735 4.13419 6.92661C4.09401 6.87973 4.07143 6.81614 4.07143 6.74984V3.24983ZM2.78571 3.24983C2.78571 3.18353 2.80829 3.11994 2.84848 3.07306C2.88866 3.02617 2.94317 2.99983 3 2.99983C3.05683 2.99983 3.11134 3.02617 3.15152 3.07306C3.19171 3.11994 3.21429 3.18353 3.21429 3.24983V6.74984C3.21429 6.81614 3.19171 6.87973 3.15152 6.92661C3.11134 6.9735 3.05683 6.99984 3 6.99984C2.94317 6.99984 2.88866 6.9735 2.84848 6.92661C2.80829 6.87973 2.78571 6.81614 2.78571 6.74984V3.24983ZM1.5 3.24983C1.5 3.18353 1.52258 3.11994 1.56276 3.07306C1.60295 3.02617 1.65745 2.99983 1.71429 2.99983C1.77112 2.99983 1.82562 3.02617 1.86581 3.07306C1.90599 3.11994 1.92857 3.18353 1.92857 3.24983V6.74984C1.92857 6.81614 1.90599 6.87973 1.86581 6.92661C1.82562 6.9735 1.77112 6.99984 1.71429 6.99984C1.65745 6.99984 1.60295 6.9735 1.56276 6.92661C1.52258 6.87973 1.5 6.81614 1.5 6.74984V3.24983ZM5.78571 0.499835H4.17857L4.05268 0.207647C4.02601 0.145181 3.98493 0.0926353 3.93406 0.0559222C3.88319 0.019209 3.82455 -0.000215159 3.76473 -0.000165107H2.23393C2.17425 -0.000432772 2.11571 0.018919 2.06502 0.055673C2.01433 0.092427 1.97354 0.145097 1.94732 0.207647L1.82143 0.499835H0.214286C0.157454 0.499835 0.102949 0.526174 0.0627628 0.573058C0.0225765 0.619942 0 0.683531 0 0.749835L0 1.24983C0 1.31614 0.0225765 1.37973 0.0627628 1.42661C0.102949 1.4735 0.157454 1.49983 0.214286 1.49983H5.78571C5.84255 1.49983 5.89705 1.4735 5.93724 1.42661C5.97742 1.37973 6 1.31614 6 1.24983V0.749835C6 0.683531 5.97742 0.619942 5.93724 0.573058C5.89705 0.526174 5.84255 0.499835 5.78571 0.499835Z" fill="white" fill-opacity="0.9"/>
</svg>
