<svg width="12" height="12" viewBox="0 0 8 8" fill="none" xmlns="http://www.w3.org/2000/svg">
<path d="M7.59375 7.16406H0.40625C0.233398 7.16406 0.09375 7.30371 0.09375 7.47656V7.82812C0.09375 7.87109 0.128906 7.90625 0.171875 7.90625H7.82812C7.87109 7.90625 7.90625 7.87109 7.90625 7.82812V7.47656C7.90625 7.30371 7.7666 7.16406 7.59375 7.16406ZM1.5166 6.34375C1.53613 6.34375 1.55566 6.3418 1.5752 6.33887L3.21777 6.05078C3.2373 6.04688 3.25586 6.03809 3.26953 6.02344L7.40918 1.88379C7.41823 1.87475 7.42542 1.86402 7.43032 1.85221C7.43522 1.8404 7.43774 1.82773 7.43774 1.81494C7.43774 1.80215 7.43522 1.78949 7.43032 1.77767C7.42542 1.76586 7.41823 1.75513 7.40918 1.74609L5.78613 0.12207C5.76758 0.103516 5.74316 0.09375 5.7168 0.09375C5.69043 0.09375 5.66602 0.103516 5.64746 0.12207L1.50781 4.26172C1.49316 4.27637 1.48438 4.29395 1.48047 4.31348L1.19238 5.95605C1.18288 6.00837 1.18628 6.06221 1.20227 6.11292C1.21827 6.16363 1.24638 6.20967 1.28418 6.24707C1.34863 6.30957 1.42969 6.34375 1.5166 6.34375Z" fill="white" fill-opacity="0.9"/>
</svg>
