<svg width="23" height="21" viewBox="0 0 23 21" fill="none" xmlns="http://www.w3.org/2000/svg">
<path d="M3.6005 0H10.8015C11.7564 0 12.6722 0.349341 13.3474 0.971172C14.0227 1.593 14.402 2.43639 14.402 3.31579V7.73684H13.2018V3.31579C13.2018 2.72952 12.9489 2.16727 12.4988 1.75271C12.0486 1.33816 11.4381 1.10526 10.8015 1.10526H3.6005C2.96389 1.10526 2.35336 1.33816 1.90321 1.75271C1.45306 2.16727 1.20017 2.72952 1.20017 3.31579V17.6842C1.20017 18.2705 1.45306 18.8327 1.90321 19.2473C2.35336 19.6618 2.96389 19.8947 3.6005 19.8947H10.8015C11.4381 19.8947 12.0486 19.6618 12.4988 19.2473C12.9489 18.8327 13.2018 18.2705 13.2018 17.6842V13.2632H14.402V17.6842C14.402 18.5636 14.0227 19.407 13.3474 20.0288C12.6722 20.6507 11.7564 21 10.8015 21H3.6005C2.64559 21 1.72979 20.6507 1.05456 20.0288C0.379338 19.407 0 18.5636 0 17.6842V3.31579C0 2.43639 0.379338 1.593 1.05456 0.971172C1.72979 0.349341 2.64559 0 3.6005 0ZM7.201 9.94737H20.7029L16.8023 6.35526L17.5992 5.52632L23 10.5L17.5992 15.4737L16.8023 14.6447L20.7029 11.0526H7.201V9.94737Z" fill="#E6E6E6"/>
</svg>
