<svg width="69" height="72" viewBox="0 0 69 72" fill="none" xmlns="http://www.w3.org/2000/svg">
<g filter="url(#filter0_d)">
<circle cx="33" cy="33" r="33" fill="#42FCC2" fill-opacity="0.7"/>
<path d="M12.8145 45H9.54492V23.3262L2.98828 25.7344V22.7812L12.3047 19.2832H12.8145V45ZM38.3906 34.084C38.3906 37.8926 37.7402 40.7227 36.4395 42.5742C35.1387 44.4258 33.1055 45.3516 30.3398 45.3516C27.6094 45.3516 25.5879 44.4492 24.2754 42.6445C22.9629 40.8281 22.2832 38.1211 22.2363 34.5234V30.1816C22.2363 26.4199 22.8867 23.625 24.1875 21.7969C25.4883 19.9688 27.5273 19.0547 30.3047 19.0547C33.0586 19.0547 35.0859 19.9395 36.3867 21.709C37.6875 23.4668 38.3555 26.1855 38.3906 29.8652V34.084ZM35.1387 29.6367C35.1387 26.8828 34.752 24.8789 33.9785 23.625C33.2051 22.3594 31.9805 21.7266 30.3047 21.7266C28.6406 21.7266 27.4277 22.3535 26.666 23.6074C25.9043 24.8613 25.5117 26.7891 25.4883 29.3906V34.5938C25.4883 37.3594 25.8867 39.4043 26.6836 40.7285C27.4922 42.041 28.7109 42.6973 30.3398 42.6973C31.9453 42.6973 33.1348 42.0762 33.9082 40.834C34.6934 39.5918 35.1035 37.6348 35.1387 34.9629V29.6367Z" fill="white"/>
<path fill-rule="evenodd" clip-rule="evenodd" d="M41.2688 31.0166C40.9688 30.7071 40.8003 30.2875 40.8003 29.85C40.8003 29.4125 40.9688 28.9929 41.2688 28.6835L50.8688 18.7835C51.1688 18.4741 51.5757 18.3004 52 18.3004C52.4242 18.3004 52.8311 18.4741 53.1312 18.7835L62.7312 28.6835C63.0226 28.9946 63.1839 29.4114 63.1802 29.8441C63.1766 30.2767 63.0083 30.6905 62.7117 30.9965C62.415 31.3024 62.0137 31.4759 61.5942 31.4797C61.1747 31.4834 60.7705 31.3171 60.4688 31.0166L53.6 23.9331V43.05C53.6 43.4876 53.4314 43.9073 53.1313 44.2167C52.8313 44.5262 52.4243 44.7 52 44.7C51.5756 44.7 51.1686 44.5262 50.8686 44.2167C50.5685 43.9073 50.4 43.4876 50.4 43.05V23.9331L43.5312 31.0166C43.2311 31.3259 42.8242 31.4996 42.4 31.4996C41.9757 31.4996 41.5688 31.3259 41.2688 31.0166Z" fill="white"/>
</g>
<defs>
<filter id="filter0_d" x="0" y="0" width="69" height="72" filterUnits="userSpaceOnUse" color-interpolation-filters="sRGB">
<feFlood flood-opacity="0" result="BackgroundImageFix"/>
<feColorMatrix in="SourceAlpha" type="matrix" values="0 0 0 0 0 0 0 0 0 0 0 0 0 0 0 0 0 0 127 0"/>
<feOffset dx="3" dy="6"/>
<feColorMatrix type="matrix" values="0 0 0 0 0 0 0 0 0 0 0 0 0 0 0 0 0 0 0.54 0"/>
<feBlend mode="normal" in2="BackgroundImageFix" result="effect1_dropShadow"/>
<feBlend mode="normal" in="SourceGraphic" in2="effect1_dropShadow" result="shape"/>
</filter>
</defs>
</svg>
